<svg width="45" height="45" viewBox="0 0 45 45" fill="none" xmlns="http://www.w3.org/2000/svg">
<path d="M37.3333 0H7.46667C5.48638 0 3.58721 0.786665 2.18694 2.18694C0.786665 3.58721 0 5.48638 0 7.46667V37.3333C0 39.3136 0.786665 41.2128 2.18694 42.6131C3.58721 44.0133 5.48638 44.8 7.46667 44.8H37.3333C39.3136 44.8 41.2128 44.0133 42.6131 42.6131C44.0133 41.2128 44.8 39.3136 44.8 37.3333V7.46667C44.8 5.48638 44.0133 3.58721 42.6131 2.18694C41.2128 0.786665 39.3136 0 37.3333 0ZM33.1022 16.4516L21.728 31.3849C21.4961 31.6861 21.1984 31.9302 20.8575 32.0984C20.5167 32.2667 20.1419 32.3546 19.7618 32.3556C19.3837 32.3576 19.0102 32.2735 18.6695 32.1096C18.3288 31.9457 18.0299 31.7064 17.7956 31.4098L11.7227 23.6693C11.5217 23.4111 11.3735 23.1159 11.2866 22.8004C11.1997 22.4849 11.1758 22.1554 11.2162 21.8307C11.2567 21.506 11.3607 21.1924 11.5223 20.9079C11.6839 20.6234 11.9 20.3735 12.1582 20.1724C12.6797 19.7665 13.3411 19.5843 13.9969 19.666C14.3216 19.7064 14.6352 19.8104 14.9197 19.9721C15.2042 20.1337 15.4541 20.3498 15.6551 20.608L19.712 25.7849L29.12 13.3404C29.3194 13.079 29.5683 12.8593 29.8526 12.694C30.1368 12.5288 30.4509 12.4211 30.7767 12.3772C31.1026 12.3333 31.4339 12.354 31.7518 12.4381C32.0697 12.5223 32.3679 12.6682 32.6293 12.8676C32.8908 13.0669 33.1105 13.3159 33.2757 13.6001C33.441 13.8844 33.5487 14.1984 33.5926 14.5243C33.6365 14.8502 33.6158 15.1815 33.5317 15.4994C33.4475 15.8172 33.3016 16.1154 33.1022 16.3769V16.4516Z" fill="#00D52F"/>
</svg>
